<mxfile host="app.diagrams.net" agent="Mozilla/5.0 (Windows NT 10.0; Win64; x64) AppleWebKit/537.36 (KHTML, like Gecko) Chrome/127.0.0.0 Safari/537.36" version="24.7.6">
  <diagram id="C5RBs43oDa-KdzZeNtuy" name="Page-1">
    <mxGraphModel dx="1644" dy="1676" grid="0" gridSize="10" guides="1" tooltips="1" connect="1" arrows="1" fold="1" page="1" pageScale="1" pageWidth="827" pageHeight="1169" math="0" shadow="0">
      <root>
        <mxCell id="WIyWlLk6GJQsqaUBKTNV-0" />
        <mxCell id="WIyWlLk6GJQsqaUBKTNV-1" parent="WIyWlLk6GJQsqaUBKTNV-0" />
        <mxCell id="i-RsoyGzCjNEuWcIsi_D-42" value="" style="edgeStyle=orthogonalEdgeStyle;rounded=0;orthogonalLoop=1;jettySize=auto;html=1;" parent="WIyWlLk6GJQsqaUBKTNV-1" source="i-RsoyGzCjNEuWcIsi_D-0" target="i-RsoyGzCjNEuWcIsi_D-1" edge="1">
          <mxGeometry relative="1" as="geometry" />
        </mxCell>
        <mxCell id="i-RsoyGzCjNEuWcIsi_D-0" value="START" style="ellipse;whiteSpace=wrap;html=1;aspect=fixed;" parent="WIyWlLk6GJQsqaUBKTNV-1" vertex="1">
          <mxGeometry x="195" y="-120" width="50" height="50" as="geometry" />
        </mxCell>
        <mxCell id="i-RsoyGzCjNEuWcIsi_D-3" value="" style="edgeStyle=orthogonalEdgeStyle;rounded=0;orthogonalLoop=1;jettySize=auto;html=1;" parent="WIyWlLk6GJQsqaUBKTNV-1" source="i-RsoyGzCjNEuWcIsi_D-1" target="i-RsoyGzCjNEuWcIsi_D-2" edge="1">
          <mxGeometry relative="1" as="geometry" />
        </mxCell>
        <mxCell id="i-RsoyGzCjNEuWcIsi_D-2" value="&lt;div&gt;Registration&lt;/div&gt;" style="rounded=1;whiteSpace=wrap;html=1;absoluteArcSize=1;arcSize=14;strokeWidth=2;" parent="WIyWlLk6GJQsqaUBKTNV-1" vertex="1">
          <mxGeometry x="170" y="60" width="100" height="40" as="geometry" />
        </mxCell>
        <mxCell id="i-RsoyGzCjNEuWcIsi_D-1" value="Data Entry" style="shape=parallelogram;html=1;strokeWidth=2;perimeter=parallelogramPerimeter;whiteSpace=wrap;rounded=1;arcSize=12;size=0.23;" parent="WIyWlLk6GJQsqaUBKTNV-1" vertex="1">
          <mxGeometry x="165" y="-20" width="110" height="30" as="geometry" />
        </mxCell>
        <mxCell id="i-RsoyGzCjNEuWcIsi_D-9" value="" style="edgeStyle=orthogonalEdgeStyle;rounded=0;orthogonalLoop=1;jettySize=auto;html=1;exitX=0.5;exitY=1;exitDx=0;exitDy=0;" parent="WIyWlLk6GJQsqaUBKTNV-1" source="mEG66oyq-86HbFHt88Jn-0" target="i-RsoyGzCjNEuWcIsi_D-8" edge="1">
          <mxGeometry relative="1" as="geometry">
            <mxPoint x="220" y="370" as="sourcePoint" />
          </mxGeometry>
        </mxCell>
        <mxCell id="mEG66oyq-86HbFHt88Jn-4" value="Member Login" style="edgeLabel;html=1;align=center;verticalAlign=middle;resizable=0;points=[];" parent="i-RsoyGzCjNEuWcIsi_D-9" vertex="1" connectable="0">
          <mxGeometry x="-0.2481" y="3" relative="1" as="geometry">
            <mxPoint as="offset" />
          </mxGeometry>
        </mxCell>
        <mxCell id="i-RsoyGzCjNEuWcIsi_D-58" value="" style="edgeStyle=orthogonalEdgeStyle;rounded=0;orthogonalLoop=1;jettySize=auto;html=1;exitX=0;exitY=0.5;exitDx=0;exitDy=0;" parent="WIyWlLk6GJQsqaUBKTNV-1" source="mEG66oyq-86HbFHt88Jn-0" target="mEG66oyq-86HbFHt88Jn-32" edge="1">
          <mxGeometry relative="1" as="geometry">
            <mxPoint x="-80" y="140" as="sourcePoint" />
            <mxPoint x="-75" y="360" as="targetPoint" />
          </mxGeometry>
        </mxCell>
        <mxCell id="i-RsoyGzCjNEuWcIsi_D-59" value="Trainer Login" style="edgeLabel;html=1;align=center;verticalAlign=middle;resizable=0;points=[];" parent="i-RsoyGzCjNEuWcIsi_D-58" vertex="1" connectable="0">
          <mxGeometry x="-0.2379" y="-1" relative="1" as="geometry">
            <mxPoint as="offset" />
          </mxGeometry>
        </mxCell>
        <mxCell id="mEG66oyq-86HbFHt88Jn-16" style="edgeStyle=orthogonalEdgeStyle;rounded=0;orthogonalLoop=1;jettySize=auto;html=1;exitX=1;exitY=0.5;exitDx=0;exitDy=0;exitPerimeter=0;entryX=0;entryY=0.5;entryDx=0;entryDy=0;" parent="WIyWlLk6GJQsqaUBKTNV-1" source="i-RsoyGzCjNEuWcIsi_D-8" target="mEG66oyq-86HbFHt88Jn-13" edge="1">
          <mxGeometry relative="1" as="geometry" />
        </mxCell>
        <mxCell id="mEG66oyq-86HbFHt88Jn-17" value="Yes" style="edgeLabel;html=1;align=center;verticalAlign=middle;resizable=0;points=[];" parent="mEG66oyq-86HbFHt88Jn-16" vertex="1" connectable="0">
          <mxGeometry x="-0.1152" y="-4" relative="1" as="geometry">
            <mxPoint as="offset" />
          </mxGeometry>
        </mxCell>
        <mxCell id="mEG66oyq-86HbFHt88Jn-29" style="edgeStyle=orthogonalEdgeStyle;rounded=0;orthogonalLoop=1;jettySize=auto;html=1;exitX=0.5;exitY=1;exitDx=0;exitDy=0;exitPerimeter=0;entryX=0.5;entryY=0;entryDx=0;entryDy=0;" parent="WIyWlLk6GJQsqaUBKTNV-1" source="i-RsoyGzCjNEuWcIsi_D-8" target="mEG66oyq-86HbFHt88Jn-27" edge="1">
          <mxGeometry relative="1" as="geometry" />
        </mxCell>
        <mxCell id="mEG66oyq-86HbFHt88Jn-41" value="No" style="edgeLabel;html=1;align=center;verticalAlign=middle;resizable=0;points=[];" parent="mEG66oyq-86HbFHt88Jn-29" vertex="1" connectable="0">
          <mxGeometry x="-0.6333" relative="1" as="geometry">
            <mxPoint as="offset" />
          </mxGeometry>
        </mxCell>
        <mxCell id="i-RsoyGzCjNEuWcIsi_D-8" value="Apply for Nutritionist" style="strokeWidth=2;html=1;shape=mxgraph.flowchart.decision;whiteSpace=wrap;" parent="WIyWlLk6GJQsqaUBKTNV-1" vertex="1">
          <mxGeometry x="170" y="400" width="100" height="80" as="geometry" />
        </mxCell>
        <mxCell id="i-RsoyGzCjNEuWcIsi_D-64" value="" style="edgeStyle=orthogonalEdgeStyle;rounded=0;orthogonalLoop=1;jettySize=auto;html=1;" parent="WIyWlLk6GJQsqaUBKTNV-1" source="i-RsoyGzCjNEuWcIsi_D-18" target="i-RsoyGzCjNEuWcIsi_D-63" edge="1">
          <mxGeometry relative="1" as="geometry" />
        </mxCell>
        <mxCell id="i-RsoyGzCjNEuWcIsi_D-18" value="Administrator Approval" style="rounded=1;whiteSpace=wrap;html=1;strokeWidth=2;" parent="WIyWlLk6GJQsqaUBKTNV-1" vertex="1">
          <mxGeometry x="580" y="425" width="100" height="40" as="geometry" />
        </mxCell>
        <mxCell id="i-RsoyGzCjNEuWcIsi_D-33" value="Administrator Approval" style="whiteSpace=wrap;html=1;rounded=1;strokeWidth=2;" parent="WIyWlLk6GJQsqaUBKTNV-1" vertex="1">
          <mxGeometry x="165" y="910" width="120" height="50" as="geometry" />
        </mxCell>
        <mxCell id="i-RsoyGzCjNEuWcIsi_D-37" value="End" style="strokeWidth=2;html=1;shape=mxgraph.flowchart.terminator;whiteSpace=wrap;" parent="WIyWlLk6GJQsqaUBKTNV-1" vertex="1">
          <mxGeometry x="182.5" y="1080" width="87.5" height="40" as="geometry" />
        </mxCell>
        <mxCell id="mEG66oyq-86HbFHt88Jn-7" style="edgeStyle=orthogonalEdgeStyle;rounded=0;orthogonalLoop=1;jettySize=auto;html=1;exitX=1;exitY=0.5;exitDx=0;exitDy=0;entryX=0;entryY=0.5;entryDx=0;entryDy=0;" parent="WIyWlLk6GJQsqaUBKTNV-1" source="mEG66oyq-86HbFHt88Jn-9" target="i-RsoyGzCjNEuWcIsi_D-18" edge="1">
          <mxGeometry relative="1" as="geometry">
            <mxPoint x="445" y="445" as="sourcePoint" />
          </mxGeometry>
        </mxCell>
        <mxCell id="i-RsoyGzCjNEuWcIsi_D-66" style="edgeStyle=orthogonalEdgeStyle;rounded=0;orthogonalLoop=1;jettySize=auto;html=1;entryX=1;entryY=0.5;entryDx=0;entryDy=0;" parent="WIyWlLk6GJQsqaUBKTNV-1" source="i-RsoyGzCjNEuWcIsi_D-63" target="mEG66oyq-86HbFHt88Jn-19" edge="1">
          <mxGeometry relative="1" as="geometry">
            <Array as="points">
              <mxPoint x="790" y="640" />
            </Array>
            <mxPoint x="260" y="605" as="targetPoint" />
          </mxGeometry>
        </mxCell>
        <mxCell id="i-RsoyGzCjNEuWcIsi_D-63" value="Download Diet Recommendation" style="whiteSpace=wrap;html=1;rounded=1;strokeWidth=2;" parent="WIyWlLk6GJQsqaUBKTNV-1" vertex="1">
          <mxGeometry x="735" y="425" width="110" height="40" as="geometry" />
        </mxCell>
        <mxCell id="mEG66oyq-86HbFHt88Jn-1" value="" style="edgeStyle=orthogonalEdgeStyle;rounded=0;orthogonalLoop=1;jettySize=auto;html=1;" parent="WIyWlLk6GJQsqaUBKTNV-1" source="i-RsoyGzCjNEuWcIsi_D-2" target="mEG66oyq-86HbFHt88Jn-0" edge="1">
          <mxGeometry relative="1" as="geometry">
            <mxPoint x="220" y="100" as="sourcePoint" />
            <mxPoint x="220" y="220" as="targetPoint" />
          </mxGeometry>
        </mxCell>
        <mxCell id="mEG66oyq-86HbFHt88Jn-2" style="edgeStyle=orthogonalEdgeStyle;rounded=0;orthogonalLoop=1;jettySize=auto;html=1;exitX=1;exitY=0.5;exitDx=0;exitDy=0;entryX=0;entryY=0.5;entryDx=0;entryDy=0;" parent="WIyWlLk6GJQsqaUBKTNV-1" source="mEG66oyq-86HbFHt88Jn-0" target="mEG66oyq-86HbFHt88Jn-11" edge="1">
          <mxGeometry relative="1" as="geometry">
            <mxPoint x="790" y="300" as="targetPoint" />
            <Array as="points" />
          </mxGeometry>
        </mxCell>
        <mxCell id="mEG66oyq-86HbFHt88Jn-3" value="Nutritionist Login" style="edgeLabel;html=1;align=center;verticalAlign=middle;resizable=0;points=[];" parent="mEG66oyq-86HbFHt88Jn-2" vertex="1" connectable="0">
          <mxGeometry x="-0.2812" y="1" relative="1" as="geometry">
            <mxPoint as="offset" />
          </mxGeometry>
        </mxCell>
        <mxCell id="mEG66oyq-86HbFHt88Jn-0" value="User Login" style="rhombus;whiteSpace=wrap;html=1;" parent="WIyWlLk6GJQsqaUBKTNV-1" vertex="1">
          <mxGeometry x="180" y="150" width="80" height="80" as="geometry" />
        </mxCell>
        <mxCell id="mEG66oyq-86HbFHt88Jn-9" value="Payment" style="rounded=0;whiteSpace=wrap;html=1;" parent="WIyWlLk6GJQsqaUBKTNV-1" vertex="1">
          <mxGeometry x="450" y="430" width="70" height="30" as="geometry" />
        </mxCell>
        <mxCell id="mEG66oyq-86HbFHt88Jn-11" value="Download Medical Report" style="rounded=0;whiteSpace=wrap;html=1;" parent="WIyWlLk6GJQsqaUBKTNV-1" vertex="1">
          <mxGeometry x="640" y="170" width="90" height="40" as="geometry" />
        </mxCell>
        <mxCell id="mEG66oyq-86HbFHt88Jn-18" style="edgeStyle=orthogonalEdgeStyle;rounded=0;orthogonalLoop=1;jettySize=auto;html=1;exitX=1;exitY=0.5;exitDx=0;exitDy=0;entryX=0;entryY=0.5;entryDx=0;entryDy=0;" parent="WIyWlLk6GJQsqaUBKTNV-1" source="mEG66oyq-86HbFHt88Jn-13" target="mEG66oyq-86HbFHt88Jn-9" edge="1">
          <mxGeometry relative="1" as="geometry" />
        </mxCell>
        <mxCell id="mEG66oyq-86HbFHt88Jn-13" value="Upload Medical Report" style="rounded=0;whiteSpace=wrap;html=1;" parent="WIyWlLk6GJQsqaUBKTNV-1" vertex="1">
          <mxGeometry x="320" y="425" width="100" height="40" as="geometry" />
        </mxCell>
        <mxCell id="2yHflWSuP05zE7nxi7qt-2" value="" style="edgeStyle=orthogonalEdgeStyle;rounded=0;orthogonalLoop=1;jettySize=auto;html=1;" edge="1" parent="WIyWlLk6GJQsqaUBKTNV-1" source="mEG66oyq-86HbFHt88Jn-19">
          <mxGeometry relative="1" as="geometry">
            <mxPoint x="-128" y="690" as="targetPoint" />
          </mxGeometry>
        </mxCell>
        <mxCell id="2yHflWSuP05zE7nxi7qt-3" value="No" style="edgeLabel;html=1;align=center;verticalAlign=middle;resizable=0;points=[];fontSize=15;" vertex="1" connectable="0" parent="2yHflWSuP05zE7nxi7qt-2">
          <mxGeometry x="-0.3623" relative="1" as="geometry">
            <mxPoint as="offset" />
          </mxGeometry>
        </mxCell>
        <mxCell id="mEG66oyq-86HbFHt88Jn-19" value="Apply for Trainer" style="rhombus;whiteSpace=wrap;html=1;" parent="WIyWlLk6GJQsqaUBKTNV-1" vertex="1">
          <mxGeometry x="180" y="600" width="80" height="80" as="geometry" />
        </mxCell>
        <mxCell id="mEG66oyq-86HbFHt88Jn-24" style="edgeStyle=orthogonalEdgeStyle;rounded=0;orthogonalLoop=1;jettySize=auto;html=1;exitX=0.5;exitY=1;exitDx=0;exitDy=0;entryX=0.5;entryY=0;entryDx=0;entryDy=0;" parent="WIyWlLk6GJQsqaUBKTNV-1" source="mEG66oyq-86HbFHt88Jn-20" target="mEG66oyq-86HbFHt88Jn-21" edge="1">
          <mxGeometry relative="1" as="geometry" />
        </mxCell>
        <mxCell id="mEG66oyq-86HbFHt88Jn-20" value="Upload Medical Report" style="rounded=0;whiteSpace=wrap;html=1;" parent="WIyWlLk6GJQsqaUBKTNV-1" vertex="1">
          <mxGeometry x="162.5" y="730" width="125" height="30" as="geometry" />
        </mxCell>
        <mxCell id="mEG66oyq-86HbFHt88Jn-25" style="edgeStyle=orthogonalEdgeStyle;rounded=0;orthogonalLoop=1;jettySize=auto;html=1;exitX=0.5;exitY=1;exitDx=0;exitDy=0;entryX=0.5;entryY=0;entryDx=0;entryDy=0;" parent="WIyWlLk6GJQsqaUBKTNV-1" source="mEG66oyq-86HbFHt88Jn-21" target="i-RsoyGzCjNEuWcIsi_D-33" edge="1">
          <mxGeometry relative="1" as="geometry" />
        </mxCell>
        <mxCell id="mEG66oyq-86HbFHt88Jn-21" value="Payment" style="rounded=0;whiteSpace=wrap;html=1;" parent="WIyWlLk6GJQsqaUBKTNV-1" vertex="1">
          <mxGeometry x="175" y="810" width="100" height="30" as="geometry" />
        </mxCell>
        <mxCell id="mEG66oyq-86HbFHt88Jn-27" value="" style="verticalLabelPosition=bottom;verticalAlign=top;html=1;shape=offPageConnector;rounded=0;size=0.6666666666666666;" parent="WIyWlLk6GJQsqaUBKTNV-1" vertex="1">
          <mxGeometry x="205" y="510" width="30" height="30" as="geometry" />
        </mxCell>
        <mxCell id="mEG66oyq-86HbFHt88Jn-31" style="edgeStyle=orthogonalEdgeStyle;rounded=0;orthogonalLoop=1;jettySize=auto;html=1;exitX=0.5;exitY=1;exitDx=0;exitDy=0;entryX=0.5;entryY=0;entryDx=0;entryDy=0;" parent="WIyWlLk6GJQsqaUBKTNV-1" source="mEG66oyq-86HbFHt88Jn-28" target="mEG66oyq-86HbFHt88Jn-19" edge="1">
          <mxGeometry relative="1" as="geometry" />
        </mxCell>
        <mxCell id="mEG66oyq-86HbFHt88Jn-28" value="" style="verticalLabelPosition=bottom;verticalAlign=top;html=1;shape=offPageConnector;rounded=0;size=0.5;" parent="WIyWlLk6GJQsqaUBKTNV-1" vertex="1">
          <mxGeometry x="205" y="554.5" width="30" height="30" as="geometry" />
        </mxCell>
        <mxCell id="mEG66oyq-86HbFHt88Jn-38" style="edgeStyle=orthogonalEdgeStyle;rounded=0;orthogonalLoop=1;jettySize=auto;html=1;exitX=0.5;exitY=1;exitDx=0;exitDy=0;entryX=0.5;entryY=0;entryDx=0;entryDy=0;" parent="WIyWlLk6GJQsqaUBKTNV-1" source="mEG66oyq-86HbFHt88Jn-32" target="mEG66oyq-86HbFHt88Jn-36" edge="1">
          <mxGeometry relative="1" as="geometry" />
        </mxCell>
        <mxCell id="mEG66oyq-86HbFHt88Jn-32" value="Download Medical Report" style="rounded=0;whiteSpace=wrap;html=1;" parent="WIyWlLk6GJQsqaUBKTNV-1" vertex="1">
          <mxGeometry x="-235" y="245" width="110" height="30" as="geometry" />
        </mxCell>
        <mxCell id="mEG66oyq-86HbFHt88Jn-34" value="Upload Diet Recommendation" style="shape=parallelogram;perimeter=parallelogramPerimeter;whiteSpace=wrap;html=1;fixedSize=1;" parent="WIyWlLk6GJQsqaUBKTNV-1" vertex="1">
          <mxGeometry x="730" y="320" width="130" height="30" as="geometry" />
        </mxCell>
        <mxCell id="mEG66oyq-86HbFHt88Jn-35" style="edgeStyle=orthogonalEdgeStyle;rounded=0;orthogonalLoop=1;jettySize=auto;html=1;exitX=1;exitY=0.5;exitDx=0;exitDy=0;entryX=0.444;entryY=-0.122;entryDx=0;entryDy=0;entryPerimeter=0;" parent="WIyWlLk6GJQsqaUBKTNV-1" source="mEG66oyq-86HbFHt88Jn-11" target="mEG66oyq-86HbFHt88Jn-34" edge="1">
          <mxGeometry relative="1" as="geometry" />
        </mxCell>
        <mxCell id="mEG66oyq-86HbFHt88Jn-36" value="Upload Schedule" style="shape=parallelogram;perimeter=parallelogramPerimeter;whiteSpace=wrap;html=1;fixedSize=1;" parent="WIyWlLk6GJQsqaUBKTNV-1" vertex="1">
          <mxGeometry x="-240" y="369" width="120" height="40" as="geometry" />
        </mxCell>
        <mxCell id="mEG66oyq-86HbFHt88Jn-37" value="Download Schedule" style="rounded=0;whiteSpace=wrap;html=1;" parent="WIyWlLk6GJQsqaUBKTNV-1" vertex="1">
          <mxGeometry x="170" y="1000" width="100" height="40" as="geometry" />
        </mxCell>
        <mxCell id="mEG66oyq-86HbFHt88Jn-39" style="edgeStyle=orthogonalEdgeStyle;rounded=0;orthogonalLoop=1;jettySize=auto;html=1;exitX=0.5;exitY=1;exitDx=0;exitDy=0;entryX=0.583;entryY=-0.042;entryDx=0;entryDy=0;entryPerimeter=0;" parent="WIyWlLk6GJQsqaUBKTNV-1" source="i-RsoyGzCjNEuWcIsi_D-33" target="mEG66oyq-86HbFHt88Jn-37" edge="1">
          <mxGeometry relative="1" as="geometry">
            <Array as="points">
              <mxPoint x="228" y="960" />
            </Array>
          </mxGeometry>
        </mxCell>
        <mxCell id="mEG66oyq-86HbFHt88Jn-40" style="edgeStyle=orthogonalEdgeStyle;rounded=0;orthogonalLoop=1;jettySize=auto;html=1;exitX=0.5;exitY=1;exitDx=0;exitDy=0;entryX=0.417;entryY=-0.108;entryDx=0;entryDy=0;entryPerimeter=0;" parent="WIyWlLk6GJQsqaUBKTNV-1" source="mEG66oyq-86HbFHt88Jn-37" target="i-RsoyGzCjNEuWcIsi_D-37" edge="1">
          <mxGeometry relative="1" as="geometry" />
        </mxCell>
        <mxCell id="xn2H2PVy1yswmy7M80Ht-0" style="edgeStyle=orthogonalEdgeStyle;rounded=0;orthogonalLoop=1;jettySize=auto;html=1;exitX=0.5;exitY=1;exitDx=0;exitDy=0;entryX=0.447;entryY=-0.033;entryDx=0;entryDy=0;entryPerimeter=0;" parent="WIyWlLk6GJQsqaUBKTNV-1" source="mEG66oyq-86HbFHt88Jn-19" target="mEG66oyq-86HbFHt88Jn-20" edge="1">
          <mxGeometry relative="1" as="geometry" />
        </mxCell>
        <mxCell id="xn2H2PVy1yswmy7M80Ht-1" value="Yes" style="edgeLabel;html=1;align=center;verticalAlign=middle;resizable=0;points=[];fontSize=13;" parent="xn2H2PVy1yswmy7M80Ht-0" vertex="1" connectable="0">
          <mxGeometry x="-0.3018" y="-1" relative="1" as="geometry">
            <mxPoint as="offset" />
          </mxGeometry>
        </mxCell>
        <mxCell id="2yHflWSuP05zE7nxi7qt-6" value="" style="edgeStyle=orthogonalEdgeStyle;rounded=0;orthogonalLoop=1;jettySize=auto;html=1;" edge="1" parent="WIyWlLk6GJQsqaUBKTNV-1" source="2yHflWSuP05zE7nxi7qt-4" target="2yHflWSuP05zE7nxi7qt-5">
          <mxGeometry relative="1" as="geometry" />
        </mxCell>
        <mxCell id="2yHflWSuP05zE7nxi7qt-13" value="Yes" style="edgeLabel;html=1;align=center;verticalAlign=middle;resizable=0;points=[];" vertex="1" connectable="0" parent="2yHflWSuP05zE7nxi7qt-6">
          <mxGeometry x="-0.4879" y="-1" relative="1" as="geometry">
            <mxPoint as="offset" />
          </mxGeometry>
        </mxCell>
        <mxCell id="2yHflWSuP05zE7nxi7qt-12" value="" style="edgeStyle=orthogonalEdgeStyle;rounded=0;orthogonalLoop=1;jettySize=auto;html=1;" edge="1" parent="WIyWlLk6GJQsqaUBKTNV-1" source="2yHflWSuP05zE7nxi7qt-4" target="2yHflWSuP05zE7nxi7qt-11">
          <mxGeometry relative="1" as="geometry" />
        </mxCell>
        <mxCell id="2yHflWSuP05zE7nxi7qt-14" value="No" style="edgeLabel;html=1;align=center;verticalAlign=middle;resizable=0;points=[];" vertex="1" connectable="0" parent="2yHflWSuP05zE7nxi7qt-12">
          <mxGeometry x="-0.2832" y="-2" relative="1" as="geometry">
            <mxPoint as="offset" />
          </mxGeometry>
        </mxCell>
        <mxCell id="2yHflWSuP05zE7nxi7qt-4" value="Activity Logging" style="rhombus;whiteSpace=wrap;html=1;" vertex="1" parent="WIyWlLk6GJQsqaUBKTNV-1">
          <mxGeometry x="-168" y="691" width="80" height="80" as="geometry" />
        </mxCell>
        <mxCell id="2yHflWSuP05zE7nxi7qt-8" value="" style="edgeStyle=orthogonalEdgeStyle;rounded=0;orthogonalLoop=1;jettySize=auto;html=1;" edge="1" parent="WIyWlLk6GJQsqaUBKTNV-1" source="2yHflWSuP05zE7nxi7qt-5" target="2yHflWSuP05zE7nxi7qt-7">
          <mxGeometry relative="1" as="geometry" />
        </mxCell>
        <mxCell id="2yHflWSuP05zE7nxi7qt-5" value="Input Activity" style="whiteSpace=wrap;html=1;" vertex="1" parent="WIyWlLk6GJQsqaUBKTNV-1">
          <mxGeometry x="-45" y="711" width="99" height="40" as="geometry" />
        </mxCell>
        <mxCell id="2yHflWSuP05zE7nxi7qt-10" value="" style="edgeStyle=orthogonalEdgeStyle;rounded=0;orthogonalLoop=1;jettySize=auto;html=1;" edge="1" parent="WIyWlLk6GJQsqaUBKTNV-1" source="2yHflWSuP05zE7nxi7qt-7" target="2yHflWSuP05zE7nxi7qt-9">
          <mxGeometry relative="1" as="geometry" />
        </mxCell>
        <mxCell id="2yHflWSuP05zE7nxi7qt-7" value="Input Validation" style="whiteSpace=wrap;html=1;" vertex="1" parent="WIyWlLk6GJQsqaUBKTNV-1">
          <mxGeometry x="-55.5" y="787" width="120.5" height="33" as="geometry" />
        </mxCell>
        <mxCell id="2yHflWSuP05zE7nxi7qt-15" style="edgeStyle=orthogonalEdgeStyle;rounded=0;orthogonalLoop=1;jettySize=auto;html=1;exitX=0.5;exitY=1;exitDx=0;exitDy=0;entryX=1;entryY=0.5;entryDx=0;entryDy=0;" edge="1" parent="WIyWlLk6GJQsqaUBKTNV-1" source="2yHflWSuP05zE7nxi7qt-9" target="2yHflWSuP05zE7nxi7qt-11">
          <mxGeometry relative="1" as="geometry" />
        </mxCell>
        <mxCell id="2yHflWSuP05zE7nxi7qt-9" value="Data Storage" style="whiteSpace=wrap;html=1;" vertex="1" parent="WIyWlLk6GJQsqaUBKTNV-1">
          <mxGeometry x="-54.37" y="866" width="118.25" height="35.5" as="geometry" />
        </mxCell>
        <mxCell id="2yHflWSuP05zE7nxi7qt-11" value="Progress Viewing" style="whiteSpace=wrap;html=1;" vertex="1" parent="WIyWlLk6GJQsqaUBKTNV-1">
          <mxGeometry x="-187.5" y="930" width="119" height="37" as="geometry" />
        </mxCell>
      </root>
    </mxGraphModel>
  </diagram>
</mxfile>
